<svg width="16" height="18" viewBox="0 0 16 18" fill="none" xmlns="http://www.w3.org/2000/svg">
<path d="M1 16.1579V14.4737C1 13.5803 1.36863 12.7236 2.0248 12.0919C2.68097 11.4602 3.57092 11.1053 4.49888 11.1053H7.56041M2.74944 4.36842C2.74944 5.26179 3.11807 6.11856 3.77424 6.75026C4.43041 7.38196 5.32036 7.73685 6.24832 7.73685C7.17629 7.73685 8.06624 7.38196 8.72241 6.75026C9.37858 6.11856 9.74721 5.26179 9.74721 4.36842C9.74721 3.47506 9.37858 2.61829 8.72241 1.98659C8.06624 1.35489 7.17629 1 6.24832 1C5.32036 1 4.43041 1.35489 3.77424 1.98659C3.11807 2.61829 2.74944 3.47506 2.74944 4.36842ZM11.864 11.6189C12.0346 11.4547 12.2371 11.3245 12.46 11.2356C12.6829 11.1467 12.9218 11.101 13.163 11.101C13.4042 11.101 13.6431 11.1467 13.866 11.2356C14.0889 11.3245 14.2914 11.4547 14.462 11.6189C14.6325 11.7832 14.7678 11.9781 14.8602 12.1927C14.9525 12.4073 15 12.6372 15 12.8695C15 13.1017 14.9525 13.3317 14.8602 13.5462C14.7678 13.7608 14.6325 13.9558 14.462 14.12L11.4966 17H8.87249V14.4737L11.864 11.6189Z" stroke="#3C4952" stroke-width="2" stroke-linecap="round" stroke-linejoin="round"/>
</svg>
