<svg width="18" height="18" viewBox="0 0 18 18" fill="none" xmlns="http://www.w3.org/2000/svg">
<path d="M11.6655 1.76172C11.6655 1.5597 11.7458 1.36595 11.8887 1.2231C12.0317 1.08025 12.2255 1 12.4276 1H16.238C16.4401 1 16.634 1.08025 16.7769 1.2231C16.9198 1.36595 17.0001 1.5597 17.0001 1.76172V5.57034C17.0001 5.77236 16.9198 5.96611 16.7769 6.10896C16.634 6.25181 16.4401 6.33206 16.238 6.33206H12.4276C12.2255 6.33206 12.0317 6.25181 11.8887 6.10896C11.7458 5.96611 11.6655 5.77236 11.6655 5.57034V1.76172Z" stroke="#3C4952" stroke-width="2" stroke-linecap="round" stroke-linejoin="round"/>
<path d="M1 11.668H10.145C10.5492 11.668 10.9369 11.8285 11.2227 12.1142C11.5086 12.3999 11.6691 12.7874 11.6691 13.1914V15.4766C11.6691 15.8807 11.5086 16.2682 11.2227 16.5539C10.9369 16.8396 10.5492 17.0001 10.145 17.0001H2.52416C2.11993 17.0001 1.73225 16.8396 1.44642 16.5539C1.16058 16.2682 1 15.8807 1 15.4766V7.85938C1 7.45534 1.16058 7.06785 1.44642 6.78214C1.73225 6.49644 2.11993 6.33594 2.52416 6.33594H4.81041C5.21464 6.33594 5.60232 6.49644 5.88816 6.78214C6.17399 7.06785 6.33457 7.45534 6.33457 7.85938V17.0001" stroke="#3C4952" stroke-width="2" stroke-linecap="round" stroke-linejoin="round"/>
</svg>
