<svg width="18" height="18" viewBox="0 0 18 18" fill="none" xmlns="http://www.w3.org/2000/svg">
<path d="M13 1V4.55556M5 1V4.55556M1 8.11111H17M1 4.55556C1 4.08406 1.21071 3.63187 1.58579 3.29848C1.96086 2.96508 2.46957 2.77778 3 2.77778H15C15.5304 2.77778 16.0391 2.96508 16.4142 3.29848C16.7893 3.63187 17 4.08406 17 4.55556V15.2222C17 15.6937 16.7893 16.1459 16.4142 16.4793C16.0391 16.8127 15.5304 17 15 17H3C2.46957 17 1.96086 16.8127 1.58579 16.4793C1.21071 16.1459 1 15.6937 1 15.2222V4.55556ZM5 11.6667H7V13.4444H5V11.6667Z" stroke="#3C4952" stroke-width="2" stroke-linecap="round" stroke-linejoin="round"/>
</svg>
