<svg width="16" height="16" viewBox="0 0 16 16" fill="none" xmlns="http://www.w3.org/2000/svg">
<path d="M12.8 0C13.6487 0 14.4626 0.354894 15.0627 0.986611C15.6629 1.61833 16 2.47512 16 3.3685V10.1055C16 10.9989 15.6629 11.8557 15.0627 12.4874C14.4626 13.1191 13.6487 13.474 12.8 13.474H9.0208L5.2112 15.88C5.09647 15.9524 4.96631 15.9935 4.83262 15.9993C4.69893 16.0051 4.56599 15.9755 4.44597 15.9133C4.32594 15.851 4.22267 15.7581 4.14559 15.643C4.06852 15.5278 4.02011 15.3942 4.0048 15.2543L4 15.1583V13.474H3.2C2.37901 13.474 1.58942 13.1418 0.994551 12.5462C0.399684 11.9506 0.0450498 11.1371 0.00400009 10.2739L0 10.1055V3.3685C0 2.47512 0.337142 1.61833 0.937258 0.986611C1.53737 0.354894 2.35131 0 3.2 0H12.8ZM9.6 7.57913H4.8C4.58783 7.57913 4.38434 7.66785 4.23431 7.82578C4.08429 7.98371 4 8.19791 4 8.42125C4 8.6446 4.08429 8.85879 4.23431 9.01672C4.38434 9.17465 4.58783 9.26338 4.8 9.26338H9.6C9.81217 9.26338 10.0157 9.17465 10.1657 9.01672C10.3157 8.85879 10.4 8.6446 10.4 8.42125C10.4 8.19791 10.3157 7.98371 10.1657 7.82578C10.0157 7.66785 9.81217 7.57913 9.6 7.57913ZM11.2 4.21063H4.8C4.58783 4.21063 4.38434 4.29935 4.23431 4.45728C4.08429 4.61521 4 4.82941 4 5.05275C4 5.2761 4.08429 5.49029 4.23431 5.64822C4.38434 5.80615 4.58783 5.89488 4.8 5.89488H11.2C11.4122 5.89488 11.6157 5.80615 11.7657 5.64822C11.9157 5.49029 12 5.2761 12 5.05275C12 4.82941 11.9157 4.61521 11.7657 4.45728C11.6157 4.29935 11.4122 4.21063 11.2 4.21063Z" fill="#3C4952"/>
</svg>
