<svg width="14" height="18" viewBox="0 0 14 18" fill="none" xmlns="http://www.w3.org/2000/svg">
<path d="M9 1V4.55556C9 4.7913 9.08429 5.0174 9.23431 5.18409C9.38434 5.35079 9.58783 5.44444 9.8 5.44444H13M9 1H5.8C5.37565 1 4.96869 1.1873 4.66863 1.5207C4.36857 1.8541 4.2 2.30628 4.2 2.77778V11.6667C4.2 12.1382 4.36857 12.5903 4.66863 12.9237C4.96869 13.2571 5.37565 13.4444 5.8 13.4444H11.4C11.8243 13.4444 12.2313 13.2571 12.5314 12.9237C12.8314 12.5903 13 12.1382 13 11.6667V5.44444M9 1L13 5.44444M9.8 13.4444V15.2222C9.8 15.6937 9.63143 16.1459 9.33137 16.4793C9.03131 16.8127 8.62435 17 8.2 17H2.6C2.17565 17 1.76869 16.8127 1.46863 16.4793C1.16857 16.1459 1 15.6937 1 15.2222V6.33333C1 5.86184 1.16857 5.40965 1.46863 5.07625C1.76869 4.74286 2.17565 4.55556 2.6 4.55556H4.2" stroke="#13181B" stroke-width="2" stroke-linecap="round" stroke-linejoin="round"/>
</svg>
