<svg width="14" height="18" viewBox="0 0 14 18" fill="none" xmlns="http://www.w3.org/2000/svg">
<path d="M8.71429 1V4.55556C8.71429 4.7913 8.80459 5.0174 8.96534 5.18409C9.12608 5.35079 9.3441 5.44444 9.57143 5.44444H13M8.71429 1H2.71429C2.25963 1 1.82359 1.1873 1.5021 1.5207C1.18061 1.8541 1 2.30628 1 2.77778V15.2222C1 15.6937 1.18061 16.1459 1.5021 16.4793C1.82359 16.8127 2.25963 17 2.71429 17H11.2857C11.7404 17 12.1764 16.8127 12.4979 16.4793C12.8194 16.1459 13 15.6937 13 15.2222V5.44444M8.71429 1L13 5.44444" stroke="#3C4952" stroke-width="2" stroke-linecap="round" stroke-linejoin="round"/>
</svg>
