<svg width="18" height="18" viewBox="0 0 18 18" fill="none" xmlns="http://www.w3.org/2000/svg">
<path d="M11.6667 11.6667L14.6444 14.6444M6.33325 11.6667L3.35547 14.6444M3.35547 3.35555L6.33325 6.33333M14.6444 3.35555L11.6667 6.33333M5.44444 9C5.44444 9.94299 5.81905 10.8474 6.48584 11.5142C7.15264 12.181 8.05701 12.5556 9 12.5556C9.94299 12.5556 10.8474 12.181 11.5142 11.5142C12.181 10.8474 12.5556 9.94299 12.5556 9C12.5556 8.05701 12.181 7.15264 11.5142 6.48584C10.8474 5.81905 9.94299 5.44444 9 5.44444C8.05701 5.44444 7.15264 5.81905 6.48584 6.48584C5.81905 7.15264 5.44444 8.05701 5.44444 9ZM1 9C1 10.0506 1.20693 11.0909 1.60896 12.0615C2.011 13.0321 2.60028 13.914 3.34315 14.6569C4.08601 15.3997 4.96793 15.989 5.93853 16.391C6.90914 16.7931 7.94943 17 9 17C10.0506 17 11.0909 16.7931 12.0615 16.391C13.0321 15.989 13.914 15.3997 14.6569 14.6569C15.3997 13.914 15.989 13.0321 16.391 12.0615C16.7931 11.0909 17 10.0506 17 9C17 7.94943 16.7931 6.90914 16.391 5.93853C15.989 4.96793 15.3997 4.08601 14.6569 3.34315C13.914 2.60028 13.0321 2.011 12.0615 1.60896C11.0909 1.20693 10.0506 1 9 1C7.94943 1 6.90914 1.20693 5.93853 1.60896C4.96793 2.011 4.08601 2.60028 3.34315 3.34315C2.60028 4.08601 2.011 4.96793 1.60896 5.93853C1.20693 6.90914 1 7.94943 1 9Z" stroke="#3C4952" stroke-width="2" stroke-linecap="round" stroke-linejoin="round"/>
</svg>
