<svg width="18" height="18" viewBox="0 0 18 18" fill="none" xmlns="http://www.w3.org/2000/svg">
<path d="M6.33333 17V11.6667C6.33333 11.1952 6.52063 10.743 6.85403 10.4096C7.18743 10.0762 7.63962 9.88889 8.11111 9.88889H9.88889C10.3604 9.88889 10.8126 10.0762 11.146 10.4096C11.4794 10.743 11.6667 11.1952 11.6667 11.6667V17M2.77778 9H1L9 1L17 9H15.2222V15.2222C15.2222 15.6937 15.0349 16.1459 14.7015 16.4793C14.3681 16.8127 13.9159 17 13.4444 17H4.55556C4.08406 17 3.63187 16.8127 3.29848 16.4793C2.96508 16.1459 2.77778 15.6937 2.77778 15.2222V9Z" stroke="#3C4952" stroke-width="2" stroke-linecap="round" stroke-linejoin="round"/>
</svg>
