<svg width="33" height="16" viewBox="0 0 33 16" fill="none" xmlns="http://www.w3.org/2000/svg">
<path d="M11.3333 15V10.3333C11.3333 9.92077 11.6962 9.52511 12.3422 9.23339C12.9881 8.94167 13.8643 8.77778 14.7778 8.77778H18.2222C19.1357 8.77778 20.0119 8.94167 20.6578 9.23339C21.3038 9.52511 21.6667 9.92077 21.6667 10.3333V15M4.44444 8H1L16.5 1L32 8H28.5556V13.4444C28.5556 13.857 28.1927 14.2527 27.5467 14.5444C26.9007 14.8361 26.0246 15 25.1111 15H7.88889C6.97537 15 6.09926 14.8361 5.4533 14.5444C4.80734 14.2527 4.44444 13.857 4.44444 13.4444V8Z" stroke="#3C4952" stroke-width="2" stroke-linecap="round" stroke-linejoin="round"/>
</svg>
