<svg width="28" height="18" viewBox="0 0 28 18" fill="none" xmlns="http://www.w3.org/2000/svg">
<path d="M9.66667 9H18.3333M14 6.33333V11.6667M1 9C1 10.0506 1.33625 11.0909 1.98957 12.0615C2.64288 13.0321 3.60045 13.914 4.80761 14.6569C6.01477 15.3997 7.44788 15.989 9.02512 16.391C10.6023 16.7931 12.2928 17 14 17C15.7072 17 17.3977 16.7931 18.9749 16.391C20.5521 15.989 21.9852 15.3997 23.1924 14.6569C24.3995 13.914 25.3571 13.0321 26.0104 12.0615C26.6637 11.0909 27 10.0506 27 9C27 6.87827 25.6304 4.84344 23.1924 3.34315C20.7544 1.84285 17.4478 1 14 1C10.5522 1 7.24558 1.84285 4.80761 3.34315C2.36964 4.84344 1 6.87827 1 9Z" stroke="#3C4952" stroke-width="2" stroke-linecap="round" stroke-linejoin="round"/>
</svg>
