<svg width="18" height="8" viewBox="0 0 18 8" fill="none" xmlns="http://www.w3.org/2000/svg">
<path d="M14 7L17 4M17 4L14 1M17 4H5M5 4C5 4.53043 4.78929 5.03914 4.41421 5.41421C4.03914 5.78929 3.53043 6 3 6C2.46957 6 1.96086 5.78929 1.58579 5.41421C1.21071 5.03914 1 4.53043 1 4C1 3.46957 1.21071 2.96086 1.58579 2.58579C1.96086 2.21071 2.46957 2 3 2C3.53043 2 4.03914 2.21071 4.41421 2.58579C4.78929 2.96086 5 3.46957 5 4Z" stroke="#3C4952" stroke-width="2" stroke-linecap="round" stroke-linejoin="round"/>
</svg>
