<svg width="18" height="18" viewBox="0 0 18 18" fill="none" xmlns="http://www.w3.org/2000/svg">
<path d="M17 8.99948L1.6571 1.03348C1.56952 0.997719 1.47391 0.990413 1.38242 1.01249C1.29093 1.03457 1.20767 1.08503 1.14322 1.15748C1.07688 1.23185 1.03122 1.32429 1.01128 1.42454C0.991347 1.5248 0.997923 1.62896 1.03028 1.72548L3.35308 8.99948M17 8.99948L1.6571 16.9655C1.56952 17.0012 1.47391 17.0086 1.38242 16.9865C1.29093 16.9644 1.20767 16.9139 1.14322 16.8415C1.07688 16.7671 1.03122 16.6747 1.01128 16.5744C0.991347 16.4742 0.997923 16.37 1.03028 16.2735L3.35308 8.99948M17 8.99948H3.35308" stroke="#3C4952" stroke-width="2" stroke-linecap="round" stroke-linejoin="round"/>
</svg>
