<svg width="18" height="18" viewBox="0 0 18 18" fill="none" xmlns="http://www.w3.org/2000/svg">
<path d="M17 14.3333C17 15.0406 16.719 15.7189 16.219 16.219C15.7189 16.719 15.0406 17 14.3333 17H3.66667C2.95942 17 2.28115 16.719 1.78105 16.219C1.28095 15.7189 1 15.0406 1 14.3333M9 6.33333V13.4444M9 13.4444L6.33333 10.7778M9 13.4444L11.6667 10.7778M1 3.66667C1 2.95942 1.28095 2.28115 1.78105 1.78105C2.28115 1.28095 2.95942 1 3.66667 1H14.3333C15.0406 1 15.7189 1.28095 16.219 1.78105C16.719 2.28115 17 2.95942 17 3.66667C17 4.37391 16.719 5.05219 16.219 5.55229C15.7189 6.05238 15.0406 6.33333 14.3333 6.33333H3.66667C2.95942 6.33333 2.28115 6.05238 1.78105 5.55229C1.28095 5.05219 1 4.37391 1 3.66667Z" stroke="#3C4952" stroke-width="2" stroke-linecap="round" stroke-linejoin="round"/>
</svg>
