<svg width="18" height="18" viewBox="0 0 18 18" fill="none" stroke="#3C4952" xmlns="http://www.w3.org/2000/svg">
  <path d="M3.57525 14.0448L6.00051 10.36M7.78824 7.64238L10.211 3.95918M7.79153 10.364L10.2134 14.044M12.0004 3.96001L14.4265 7.64801M4.36842 15.4C4.36842 14.9757 4.19098 14.5687 3.87513 14.2686C3.55928 13.9686 3.13089 13.8 2.68421 13.8C2.23753 13.8 1.80914 13.9686 1.49329 14.2686C1.17744 14.5687 1 14.9757 1 15.4C1 15.8243 1.17744 16.2313 1.49329 16.5314C1.80914 16.8314 2.23753 17 2.68421 17C3.13089 17 3.55928 16.8314 3.87513 16.5314C4.19098 16.2313 4.36842 15.8243 4.36842 15.4ZM12.7895 2.6C12.7895 2.17565 12.612 1.76869 12.2962 1.46863C11.9803 1.16857 11.5519 1 11.1053 1C10.6586 1 10.2302 1.16857 9.91435 1.46863C9.5985 1.76869 9.42105 2.17565 9.42105 2.6C9.42105 3.02435 9.5985 3.43131 9.91435 3.73137C10.2302 4.03143 10.6586 4.2 11.1053 4.2C11.5519 4.2 11.9803 4.03143 12.2962 3.73137C12.612 3.43131 12.7895 3.02435 12.7895 2.6ZM12.7895 15.4C12.7895 14.9757 12.612 14.5687 12.2962 14.2686C11.9803 13.9686 11.5519 13.8 11.1053 13.8C10.6586 13.8 10.2302 13.9686 9.91435 14.2686C9.5985 14.5687 9.42105 14.9757 9.42105 15.4C9.42105 15.8243 9.5985 16.2313 9.91435 16.5314C10.2302 16.8314 10.6586 17 11.1053 17C11.5519 17 11.9803 16.8314 12.2962 16.5314C12.612 16.2313 12.7895 15.8243 12.7895 15.4ZM8.57895 9C8.57895 8.57565 8.4015 8.16869 8.08565 7.86863C7.7698 7.56857 7.34142 7.4 6.89474 7.4C6.44806 7.4 6.01967 7.56857 5.70382 7.86863C5.38797 8.16869 5.21053 8.57565 5.21053 9C5.21053 9.42435 5.38797 9.83131 5.70382 10.1314C6.01967 10.4314 6.44806 10.6 6.89474 10.6C7.34142 10.6 7.7698 10.4314 8.08565 10.1314C8.4015 9.83131 8.57895 9.42435 8.57895 9ZM17 9C17 8.57565 16.8226 8.16869 16.5067 7.86863C16.1909 7.56857 15.7625 7.4 15.3158 7.4C14.8691 7.4 14.4407 7.56857 14.1249 7.86863C13.809 8.16869 13.6316 8.57565 13.6316 9C13.6316 9.42435 13.809 9.83131 14.1249 10.1314C14.4407 10.4314 14.8691 10.6 15.3158 10.6C15.7625 10.6 16.1909 10.4314 16.5067 10.1314C16.8226 9.83131 17 9.42435 17 9Z" stroke-width="2" stroke-linecap="round" stroke-linejoin="round"/>
</svg>
