<svg width="18" height="12" viewBox="0 0 18 12" fill="none" xmlns="http://www.w3.org/2000/svg">
<path d="M7.22222 6C7.22222 6.44203 7.40952 6.86595 7.74292 7.17851C8.07632 7.49107 8.5285 7.66667 9 7.66667C9.4715 7.66667 9.92368 7.49107 10.2571 7.17851C10.5905 6.86595 10.7778 6.44203 10.7778 6C10.7778 5.55797 10.5905 5.13405 10.2571 4.82149C9.92368 4.50893 9.4715 4.33333 9 4.33333C8.5285 4.33333 8.07632 4.50893 7.74292 4.82149C7.40952 5.13405 7.22222 5.55797 7.22222 6Z" stroke="#3C4952" stroke-width="2" stroke-linecap="round" stroke-linejoin="round"/>
<path d="M17 6C14.8667 9.33333 12.2 11 9 11C5.8 11 3.13333 9.33333 1 6C3.13333 2.66667 5.8 1 9 1C12.2 1 14.8667 2.66667 17 6Z" stroke="#3C4952" stroke-width="2" stroke-linecap="round" stroke-linejoin="round"/>
</svg>
