<svg width="18" height="18" viewBox="0 0 18 18" fill="none" xmlns="http://www.w3.org/2000/svg">
<path d="M10.9162 2.90854L15.0915 7.08379M1 17H5.17525L16.1353 6.03997C16.4094 5.76582 16.6269 5.44036 16.7753 5.08216C16.9236 4.72397 17 4.34005 17 3.95235C17 3.56464 16.9236 3.18073 16.7753 2.82253C16.6269 2.46434 16.4094 2.13887 16.1353 1.86472C15.8611 1.59057 15.5357 1.3731 15.1775 1.22473C14.8193 1.07637 14.4354 1 14.0477 1C13.6599 1 13.276 1.07637 12.9178 1.22473C12.5596 1.3731 12.2342 1.59057 11.96 1.86472L1 12.8248V17Z" stroke="#3C4952" stroke-width="2" stroke-linecap="round" stroke-linejoin="round"/>
</svg>
