<?xml version="1.0" encoding="UTF-8" standalone="no"?>
<!-- Created with Inkscape (http://www.inkscape.org/) -->

<svg
   width="15.824391mm"
   height="13.125182mm"
   viewBox="0 0 15.824391 13.125183"
   version="1.1"
   id="svg8"
   inkscape:version="1.1.2 (0a00cf5339, 2022-02-04)"
   sodipodi:docname="favicon.svg"
   inkscape:export-filename="/home/leo/code/rsm-core/docs/source/_static/favicon.png"
   inkscape:export-xdpi="150"
   inkscape:export-ydpi="150"
   xmlns:inkscape="http://www.inkscape.org/namespaces/inkscape"
   xmlns:sodipodi="http://sodipodi.sourceforge.net/DTD/sodipodi-0.dtd"
   xmlns="http://www.w3.org/2000/svg"
   xmlns:svg="http://www.w3.org/2000/svg"
   xmlns:rdf="http://www.w3.org/1999/02/22-rdf-syntax-ns#"
   xmlns:cc="http://creativecommons.org/ns#"
   xmlns:dc="http://purl.org/dc/elements/1.1/">
  <defs
     id="defs2" />
  <sodipodi:namedview
     id="base"
     pagecolor="#ffffff"
     bordercolor="#666666"
     borderopacity="1.0"
     inkscape:pageopacity="1"
     inkscape:pageshadow="2"
     inkscape:zoom="11.313708"
     inkscape:cx="27.356194"
     inkscape:cy="17.36831"
     inkscape:document-units="mm"
     inkscape:current-layer="layer1"
     showgrid="false"
     inkscape:snap-bbox="true"
     showguides="true"
     showborder="false"
     inkscape:window-width="1918"
     inkscape:window-height="1168"
     inkscape:window-x="0"
     inkscape:window-y="30"
     inkscape:window-maximized="1"
     inkscape:pagecheckerboard="0"
     fit-margin-top="0"
     fit-margin-left="0"
     fit-margin-right="0"
     fit-margin-bottom="0"
     inkscape:bbox-paths="true"
     inkscape:bbox-nodes="true"
     inkscape:snap-bbox-edge-midpoints="true"
     inkscape:snap-bbox-midpoints="true">
    <inkscape:grid
       type="xygrid"
       id="grid24"
       originx="-31.661398"
       originy="-43.735799" />
  </sodipodi:namedview>
  <metadata
     id="metadata5">
    <rdf:RDF>
      <cc:Work
         rdf:about="">
        <dc:format>image/svg+xml</dc:format>
        <dc:type
           rdf:resource="http://purl.org/dc/dcmitype/StillImage" />
      </cc:Work>
    </rdf:RDF>
  </metadata>
  <g
     inkscape:label="Layer 1"
     inkscape:groupmode="layer"
     id="layer1"
     transform="translate(-31.6614,-43.735791)">
    <rect
       style="font-size:121.416px;line-height:125%;font-family:Montserrat;-inkscape-font-specification:'Montserrat, Normal';letter-spacing:0px;word-spacing:0px;fill:#005187;fill-opacity:1;stroke:#000000;stroke-width:0;stroke-linecap:round;stroke-linejoin:round;stroke-opacity:0;stop-color:#000000"
       id="rect1910"
       width="15.824391"
       height="13.125182"
       x="31.6614"
       y="43.73579"
       ry="3.6524928"
       inkscape:export-filename="/tmp/rect1910.png"
       inkscape:export-xdpi="150"
       inkscape:export-ydpi="150" />
    <path
       d="m 44.214677,53.215025 q 0,0.826635 -0.507254,1.25874 -0.507252,0.432105 -1.164807,0.432105 -0.338179,0 -0.638785,-0.112725 -0.300569,-0.112712 -0.544792,-0.319377 -0.225455,-0.225447 -0.375757,-0.526041 -0.131531,-0.319382 -0.131531,-0.732699 0,-0.39453 0.131531,-0.695124 0.150302,-0.319381 0.375757,-0.52604 0.244223,-0.206659 0.544792,-0.319382 0.300606,-0.112725 0.638785,-0.112725 0.657555,0 1.164807,0.432104 0.507254,0.432105 0.507254,1.221164 z m 0,-5.692501 q 0,0.826634 -0.507254,1.258735 -0.507252,0.432105 -1.164807,0.432105 -0.338179,0 -0.638785,-0.112725 -0.300569,-0.112725 -0.544792,-0.319383 -0.225455,-0.225443 -0.375757,-0.526037 -0.131531,-0.319381 -0.131531,-0.732697 0,-0.39453 0.131531,-0.695124 0.150302,-0.319382 0.375757,-0.526041 0.244223,-0.206658 0.544792,-0.319382 0.300606,-0.112725 0.638785,-0.112725 0.657555,0 1.164807,0.432105 0.507254,0.432105 0.507254,1.221164 z"
       style="font-size:121.416px;line-height:125%;font-family:Montserrat;-inkscape-font-specification:'Montserrat, Normal';letter-spacing:0px;word-spacing:0px;fill:#cccccc;stroke:#000000;stroke-width:0;stroke-miterlimit:4;stroke-dasharray:none"
       id="path17228"
       inkscape:export-filename="/home/leo/code/rsm-core/docs/source/_static/rsm-tag.png"
       inkscape:export-xdpi="150"
       inkscape:export-ydpi="150" />
    <path
       d="m 38.29046,53.215025 q 0,0.826635 -0.507252,1.25874 -0.507252,0.432105 -1.164804,0.432105 -0.33817,0 -0.638764,-0.112725 -0.300594,-0.112725 -0.544824,-0.31938 -0.225447,-0.225446 -0.375745,-0.52604 -0.131509,-0.319383 -0.131509,-0.7327 0,-0.394529 0.131509,-0.695123 0.150298,-0.319381 0.375745,-0.526041 0.24423,-0.206658 0.544824,-0.319381 0.300594,-0.112725 0.638764,-0.112725 0.657552,0 1.164804,0.432104 0.507252,0.432105 0.507252,1.221164 z m 0,-5.692501 q 0,0.826634 -0.507252,1.258735 -0.507252,0.432105 -1.164804,0.432105 -0.33817,0 -0.638764,-0.112725 -0.300594,-0.112725 -0.544824,-0.319383 -0.225447,-0.225443 -0.375745,-0.526037 -0.131509,-0.319381 -0.131509,-0.732697 0,-0.39453 0.131509,-0.695124 0.150298,-0.319382 0.375745,-0.526041 0.24423,-0.206658 0.544824,-0.319382 0.300594,-0.112725 0.638764,-0.112725 0.657552,0 1.164804,0.432105 0.507252,0.432105 0.507252,1.221164 z"
       style="font-size:121.416px;line-height:125%;font-family:Montserrat;-inkscape-font-specification:'Montserrat, Normal';letter-spacing:0px;word-spacing:0px;fill:#cccccc;stroke:#000000;stroke-width:0;stroke-miterlimit:4;stroke-dasharray:none"
       id="path17220"
       inkscape:export-filename="/home/leo/code/rsm-core/docs/source/_static/rsm-tag.png"
       inkscape:export-xdpi="150"
       inkscape:export-ydpi="150" />
  </g>
</svg>
