<?xml version="1.0" encoding="UTF-8" standalone="no"?>
<!-- Created with Inkscape (http://www.inkscape.org/) -->

<svg
   width="40.261604mm"
   height="13.125178mm"
   viewBox="0 0 40.261604 13.125179"
   version="1.1"
   id="svg8"
   inkscape:version="1.1.2 (0a00cf5339, 2022-02-04)"
   sodipodi:docname="logo.svg"
   xmlns:inkscape="http://www.inkscape.org/namespaces/inkscape"
   xmlns:sodipodi="http://sodipodi.sourceforge.net/DTD/sodipodi-0.dtd"
   xmlns="http://www.w3.org/2000/svg"
   xmlns:svg="http://www.w3.org/2000/svg"
   xmlns:rdf="http://www.w3.org/1999/02/22-rdf-syntax-ns#"
   xmlns:cc="http://creativecommons.org/ns#"
   xmlns:dc="http://purl.org/dc/elements/1.1/">
  <defs
     id="defs2" />
  <sodipodi:namedview
     id="base"
     pagecolor="#ffffff"
     bordercolor="#666666"
     borderopacity="1.0"
     inkscape:pageopacity="0.0"
     inkscape:pageshadow="2"
     inkscape:zoom="5.2410488"
     inkscape:cx="66.685126"
     inkscape:cy="33.676466"
     inkscape:document-units="mm"
     inkscape:current-layer="layer1"
     showgrid="false"
     inkscape:snap-bbox="true"
     showguides="true"
     showborder="true"
     inkscape:window-width="1918"
     inkscape:window-height="1168"
     inkscape:window-x="0"
     inkscape:window-y="30"
     inkscape:window-maximized="1"
     inkscape:pagecheckerboard="0"
     fit-margin-top="0"
     fit-margin-left="0"
     fit-margin-right="0"
     fit-margin-bottom="0">
    <inkscape:grid
       type="xygrid"
       id="grid24"
       originx="-31.125714"
       originy="-43.730431" />
  </sodipodi:namedview>
  <metadata
     id="metadata5">
    <rdf:RDF>
      <cc:Work
         rdf:about="">
        <dc:format>image/svg+xml</dc:format>
        <dc:type
           rdf:resource="http://purl.org/dc/dcmitype/StillImage" />
      </cc:Work>
    </rdf:RDF>
  </metadata>
  <g
     inkscape:label="Layer 1"
     inkscape:groupmode="layer"
     id="layer1"
     transform="translate(-31.125715,-43.730426)">
    <g
       id="g941"
       transform="matrix(0.27499568,0,0,0.27499568,-212.1408,4.0498011)"
       inkscape:export-filename="/home/leo/code/rsm-core/docs/source/_static/rsm-tag.png"
       inkscape:export-xdpi="150"
       inkscape:export-ydpi="150"
       style="font-size:121.416px;line-height:125%;font-family:Montserrat;-inkscape-font-specification:'Montserrat, Normal';letter-spacing:0px;word-spacing:0px;stroke:#000000;stroke-width:0.962135px">
      <path
         id="rect10299"
         style="opacity:1;fill:#005187;stroke-width:0"
         d="m 35.36739,43.730426 h 31.778251 c 2.349881,0 4.241678,1.891788 4.241678,4.241674 v 4.641831 c 0,2.349885 -1.891797,4.241673 -4.241678,4.241673 H 35.36739 c -2.349888,0 -4.241675,-1.891788 -4.241675,-4.241673 V 47.9721 c 0,-2.349886 1.891787,-4.241674 4.241675,-4.241674 z"
         inkscape:export-filename="/home/leo/code/rsm-core/docs/source/_static/rsm-tag.png"
         inkscape:export-xdpi="150"
         inkscape:export-ydpi="150"
         transform="matrix(3.6364208,0,0,3.6364208,771.42183,-14.707269)" />
      <path
         d="m 908.60147,176.63784 q 0,2.37812 -1.4593,3.62123 -1.4593,1.24311 -3.35099,1.24311 -0.97287,0 -1.83764,-0.3243 -0.86477,-0.32428 -1.56739,-0.91881 -0.64858,-0.64858 -1.08097,-1.51335 -0.37833,-0.91882 -0.37833,-2.10788 0,-1.13501 0.37833,-1.99978 0.43239,-0.91882 1.08097,-1.51335 0.70262,-0.59453 1.56739,-0.91882 0.86477,-0.32429 1.83764,-0.32429 1.89169,0 3.35099,1.24311 1.4593,1.24311 1.4593,3.51313 z m 0,-16.37659 q 0,2.37812 -1.4593,3.62122 -1.4593,1.24311 -3.35099,1.24311 -0.97287,0 -1.83764,-0.32429 -0.86477,-0.32428 -1.56739,-0.91882 -0.64858,-0.64857 -1.08097,-1.51334 -0.37833,-0.91882 -0.37833,-2.10788 0,-1.13501 0.37833,-1.99978 0.43239,-0.91882 1.08097,-1.51335 0.70262,-0.59453 1.56739,-0.91882 0.86477,-0.32429 1.83764,-0.32429 1.89169,0 3.35099,1.24311 1.4593,1.24311 1.4593,3.51313 z"
         style="fill:#cccccc;stroke-width:0;stroke-miterlimit:4;stroke-dasharray:none"
         id="path17220"
         inkscape:export-filename="/home/leo/code/rsm-core/docs/source/_static/rsm-tag.png"
         inkscape:export-xdpi="150"
         inkscape:export-ydpi="150" />
      <path
         d="m 940.86811,162.26103 q -0.64858,-0.16215 -1.56739,-0.32429 -0.86478,-0.16214 -1.78359,-0.27024 -0.91882,-0.16214 -1.78359,-0.21619 -0.86477,-0.054 -1.4593,-0.054 -1.40526,0 -2.75646,0.16214 -1.3512,0.1081 -2.75645,0.48644 v 18.8628 h -6.70198 v -23.72713 q 2.64836,-0.97287 5.40482,-1.5674 2.81051,-0.59453 6.53983,-0.59453 0.54048,0 1.51335,0.054 1.02691,0.054 2.16192,0.2162 1.13501,0.1081 2.27002,0.32429 1.18906,0.16214 2.10788,0.48643 z"
         style="fill:#ffffff;stroke-width:0;stroke-miterlimit:4;stroke-dasharray:none"
         id="path17222"
         inkscape:export-filename="/home/leo/code/rsm-core/docs/source/_static/rsm-tag.png"
         inkscape:export-xdpi="150"
         inkscape:export-ydpi="150" />
      <path
         d="m 956.59602,175.88116 q 2.43217,0 3.72932,-0.32428 1.29716,-0.37834 1.29716,-1.4593 0,-0.70263 -0.43238,-1.18906 -0.37834,-0.48644 -1.13502,-0.81073 -0.70262,-0.37833 -1.67549,-0.70262 -0.91882,-0.32429 -1.94573,-0.64858 -1.4593,-0.43238 -2.97265,-0.97286 -1.51335,-0.59454 -2.75646,-1.45931 -1.24311,-0.86477 -2.05383,-2.16192 -0.81072,-1.35121 -0.81072,-3.35099 0,-1.62144 0.59453,-3.02669 0.64858,-1.45931 1.94574,-2.54027 1.3512,-1.13501 3.40503,-1.72954 2.05383,-0.64858 4.91838,-0.64858 2.48622,0 4.59409,0.37834 2.16193,0.37834 3.72932,1.08096 l -1.02691,5.62101 q -0.91882,-0.27024 -2.86455,-0.86477 -1.94573,-0.64858 -4.3779,-0.64858 -2.54027,0 -3.45909,0.64858 -0.86476,0.59453 -0.86476,1.29716 0,0.59453 0.37833,1.08096 0.43239,0.43238 1.08097,0.81072 0.70262,0.37834 1.56739,0.75668 0.91882,0.32428 1.94574,0.64857 1.4593,0.48644 3.02669,1.08097 1.5674,0.59453 2.81051,1.51335 1.29715,0.86477 2.10787,2.27002 0.81073,1.3512 0.81073,3.35098 0,1.5674 -0.59453,2.97265 -0.59453,1.40526 -1.99979,2.43217 -1.3512,1.02692 -3.56717,1.62144 -2.21598,0.59454 -5.45887,0.59454 -3.29694,0 -5.621,-0.75668 -2.32407,-0.75667 -3.72933,-1.35121 l 1.02692,-5.56695 q 1.89168,0.75667 3.99956,1.40525 2.16193,0.64857 4.3779,0.64857 z"
         style="fill:#ffffff;stroke-width:0;stroke-miterlimit:4;stroke-dasharray:none"
         id="path17224"
         inkscape:export-filename="/home/leo/code/rsm-core/docs/source/_static/rsm-tag.png"
         inkscape:export-xdpi="150"
         inkscape:export-ydpi="150" />
      <path
         d="m 989.83555,155.23477 q 2.10787,0 3.45907,0.64858 1.3512,0.64858 2.10787,1.94573 0.81075,1.29716 1.08095,3.29694 0.27025,1.94573 0.27025,4.59409 v 15.18753 h -5.40481 v -15.51182 q 0,-1.51335 -0.21617,-2.43216 -0.16217,-0.91882 -0.48646,-1.40526 -0.27025,-0.48643 -0.70262,-0.64857 -0.37833,-0.16215 -0.8107,-0.16215 -0.48646,0 -1.02692,0.1081 -0.5405,0.054 -0.97287,0.27024 0.16213,1.02691 0.27021,2.27002 0.10812,1.24311 0.10812,2.75646 v 5.08053 h -5.40481 v -5.83721 q 0,-2.59431 -0.5405,-3.62122 -0.48641,-1.02692 -1.62145,-1.02692 -0.3243,0 -0.81071,0.054 -0.43237,0.0541 -0.86479,0.16215 v 19.94376 h -5.4048 v -24.42976 q 2.10788,-0.59453 4.16172,-0.91882 2.05383,-0.32429 3.6212,-0.32429 1.40529,0 2.48624,0.37834 1.135,0.32429 1.94575,1.13501 0.91878,-0.59453 2.1619,-1.02691 1.24313,-0.48644 2.59433,-0.48644 z"
         style="fill:#ffffff;stroke-width:0;stroke-miterlimit:4;stroke-dasharray:none"
         id="path17226"
         inkscape:export-filename="/home/leo/code/rsm-core/docs/source/_static/rsm-tag.png"
         inkscape:export-xdpi="150"
         inkscape:export-ydpi="150" />
      <path
         d="m 1016.6974,176.63784 q 0,2.37812 -1.4593,3.62123 -1.4593,1.24311 -3.351,1.24311 -0.9729,0 -1.8377,-0.3243 -0.8647,-0.32428 -1.5673,-0.91881 -0.6486,-0.64858 -1.081,-1.51335 -0.3784,-0.91882 -0.3784,-2.10788 0,-1.13501 0.3784,-1.99978 0.4324,-0.91882 1.081,-1.51335 0.7026,-0.59453 1.5673,-0.91882 0.8648,-0.32429 1.8377,-0.32429 1.8917,0 3.351,1.24311 1.4593,1.24311 1.4593,3.51313 z m 0,-16.37659 q 0,2.37812 -1.4593,3.62122 -1.4593,1.24311 -3.351,1.24311 -0.9729,0 -1.8377,-0.32429 -0.8647,-0.32428 -1.5673,-0.91882 -0.6486,-0.64857 -1.081,-1.51334 -0.3784,-0.91882 -0.3784,-2.10788 0,-1.13501 0.3784,-1.99978 0.4324,-0.91882 1.081,-1.51335 0.7026,-0.59453 1.5673,-0.91882 0.8648,-0.32429 1.8377,-0.32429 1.8917,0 3.351,1.24311 1.4593,1.24311 1.4593,3.51313 z"
         style="fill:#cccccc;stroke-width:0;stroke-miterlimit:4;stroke-dasharray:none"
         id="path17228"
         inkscape:export-filename="/home/leo/code/rsm-core/docs/source/_static/rsm-tag.png"
         inkscape:export-xdpi="150"
         inkscape:export-ydpi="150" />
    </g>
  </g>
</svg>
